<svg width="40" height="40" viewBox="0 0 40 40" fill="none" xmlns="http://www.w3.org/2000/svg">
<rect width="40" height="40" rx="20" fill="#E9E9E9"/>
<path d="M11.0003 25.2676C11.1635 25.1116 11.3847 25.0239 11.6154 25.0239H32.8974C33.285 25.0239 33.4791 25.4726 33.2049 25.7348L28.9996 29.7563C28.8365 29.9123 28.6152 30 28.3845 30H7.10256C6.7149 30 6.52081 29.5513 6.79503 29.289L11.0003 25.2676Z" fill="url(#paint0_linear_36_2078)"/>
<path d="M11.0003 10.2437C11.1635 10.0877 11.3847 9.99999 11.6154 10H32.8974C33.285 10 33.4791 10.4487 33.2049 10.711L28.9996 14.7324C28.8364 14.8884 28.6152 14.9761 28.3845 14.9761H7.10256C6.7149 14.9761 6.52081 14.5274 6.79503 14.2652L11.0003 10.2437Z" fill="url(#paint1_linear_36_2078)"/>
<path d="M28.9996 17.7078C28.8364 17.5518 28.6152 17.4641 28.3845 17.4641H7.10256C6.7149 17.4641 6.52081 17.9128 6.79503 18.175L11.0003 22.1965C11.1635 22.3526 11.3847 22.4402 11.6154 22.4402H32.8974C33.285 22.4402 33.4791 21.9915 33.2049 21.7292L28.9996 17.7078Z" fill="url(#paint2_linear_36_2078)"/>
<defs>
<linearGradient id="paint0_linear_36_2078" x1="24.6949" y1="4.51392" x2="10.9566" y2="32.0091" gradientUnits="userSpaceOnUse">
<stop stop-color="#00FFA3"/>
<stop offset="1" stop-color="#DC1FFF"/>
</linearGradient>
<linearGradient id="paint1_linear_36_2078" x1="24.6949" y1="4.51392" x2="10.9566" y2="32.0091" gradientUnits="userSpaceOnUse">
<stop stop-color="#00FFA3"/>
<stop offset="1" stop-color="#DC1FFF"/>
</linearGradient>
<linearGradient id="paint2_linear_36_2078" x1="24.6949" y1="4.51392" x2="10.9566" y2="32.0091" gradientUnits="userSpaceOnUse">
<stop stop-color="#00FFA3"/>
<stop offset="1" stop-color="#DC1FFF"/>
</linearGradient>
</defs>
</svg>
