<svg xmlns="http://www.w3.org/2000/svg" width="20" height="20" viewBox="0 0 20 20" fill="none">
    <rect width="20" height="20" rx="10" fill="#2AAF86"/>
    <path d="M11.0151 10.8696V10.8682C10.9581 10.8722 10.6639 10.8894 10.0093 10.8894C9.48582 10.8894 9.11874 10.8749 8.98887 10.8682V10.8696C6.97588 10.7808 5.47442 10.4309 5.47442 10.0108C5.47442 9.59207 6.97721 9.24089 8.98887 9.1521V10.521C9.12006 10.5303 9.49775 10.5528 10.0186 10.5528C10.6441 10.5528 10.9568 10.5263 11.0151 10.521V9.15342C13.0241 9.24354 14.5216 9.59339 14.5216 10.0122C14.5216 10.4309 13.0228 10.7808 11.0151 10.8709M11.0151 9.01163V7.78714H13.8179V5.91992H6.18738V7.78714H8.99019V9.01163C6.71217 9.11632 5 9.56689 5 10.1076C5 10.6483 6.71349 11.0988 8.99019 11.2048V15.1301H11.0164V11.2048C13.2905 11.1002 15 10.6496 15 10.1089C15 9.56954 13.2905 9.11764 11.0164 9.01295"
          fill="white"/>
</svg>