<svg width="40" height="40" viewBox="0 0 40 40" fill="none" xmlns="http://www.w3.org/2000/svg">
<rect width="40" height="40" rx="20" fill="#E9E9E9"/>
<g clip-path="url(#clip0_36_2020)">
<path d="M19.9973 5L19.8019 5.64548V24.3759L19.9973 24.5655L28.942 19.4262L19.9973 5Z" fill="#343434"/>
<path d="M19.9973 5L11.0526 19.4262L19.9973 24.5656V15.4744V5Z" fill="#8C8C8C"/>
<path d="M19.9973 26.2118L19.8872 26.3422V33.0144L19.9973 33.327L28.9474 21.0751L19.9973 26.2118Z" fill="#3C3C3B"/>
<path d="M19.9973 33.3269V26.2116L11.0526 21.075L19.9973 33.3269Z" fill="#8C8C8C"/>
<path d="M19.9973 24.5655L28.9419 19.4263L19.9973 15.4745V24.5655Z" fill="#141414"/>
<path d="M11.0526 19.4262L19.9972 24.5655V15.4744L11.0526 19.4262Z" fill="#393939"/>
</g>
<defs>
<clipPath id="clip0_36_2020">
<rect width="17.8947" height="28.3333" fill="white" transform="translate(11.0526 5)"/>
</clipPath>
</defs>
</svg>
