<svg width="49" height="48" viewBox="0 0 49 48" fill="none" xmlns="http://www.w3.org/2000/svg">
<path d="M36.58 27.1C35.74 27.92 35.26 29.1 35.38 30.36C35.56 32.52 37.54 34.1 39.7 34.1H43.5V36.48C43.5 40.62 40.12 44 35.98 44H15.78C17.44 42.54 18.5 40.4 18.5 38C18.5 33.58 14.92 30 10.5 30C8.62 30 6.88 30.66 5.5 31.76V23.02C5.5 18.88 8.87999 15.5 13.02 15.5H35.98C40.12 15.5 43.5 18.88 43.5 23.02V25.9H39.46C38.34 25.9 37.32 26.34 36.58 27.1Z" stroke="#A0A0B3" stroke-width="2" stroke-linecap="round" stroke-linejoin="round"/>
<path opacity="0.4" d="M5.5 23.0202V15.6803C5.5 13.3003 6.95999 11.1802 9.17999 10.3402L25.06 4.34019C27.54 3.42019 30.2 5.24025 30.2 7.90025V15.5002" stroke="#A0A0B3" stroke-width="2" stroke-linecap="round" stroke-linejoin="round"/>
<path d="M45.6201 27.9403V32.0604C45.6201 33.1604 44.7401 34.0603 43.6201 34.1003H39.7001C37.5401 34.1003 35.5601 32.5204 35.3801 30.3604C35.2601 29.1004 35.74 27.9203 36.58 27.1003C37.32 26.3403 38.3401 25.9004 39.4601 25.9004H43.6201C44.7401 25.9404 45.6201 26.8403 45.6201 27.9403Z" stroke="#A0A0B3" stroke-width="2" stroke-linecap="round" stroke-linejoin="round"/>
<path opacity="0.4" d="M14.5 24H28.5" stroke="#A0A0B3" stroke-width="2" stroke-linecap="round" stroke-linejoin="round"/>
<path d="M18.5 38C18.5 40.4 17.44 42.54 15.78 44C14.36 45.24 12.52 46 10.5 46C6.08 46 2.5 42.42 2.5 38C2.5 35.48 3.66 33.22 5.5 31.76C6.88 30.66 8.62 30 10.5 30C14.92 30 18.5 33.58 18.5 38Z" stroke="#A0A0B3" stroke-width="2" stroke-miterlimit="10" stroke-linecap="round" stroke-linejoin="round"/>
<path d="M11 35.5V38.5L8.5 40" stroke="#A0A0B3" stroke-width="2" stroke-miterlimit="10" stroke-linecap="round" stroke-linejoin="round"/>
</svg>
