<svg width="16" height="16" viewBox="0 0 16 16" fill="none" xmlns="http://www.w3.org/2000/svg">
<path d="M12.1379 6.84149C12.2284 7.18954 11.9442 7.51351 11.5846 7.51355L8.85386 7.51385C8.66173 7.51387 8.48182 7.41961 8.37247 7.26162L6.57202 4.66029C6.37353 4.3735 6.48537 3.96277 6.82081 3.86725C7.1955 3.76054 7.59108 3.70341 8 3.70341C9.95106 3.70341 11.5984 5.00386 12.1225 6.78525C12.1276 6.80268 12.1328 6.82152 12.1379 6.84149Z" fill="#A0A0B3"/>
<path d="M5.7247 5.14444C5.52756 4.85971 5.12173 4.80171 4.8788 5.04853C4.8601 5.06752 4.84277 5.08568 4.8273 5.10261C4.12923 5.86659 3.70341 6.88357 3.70341 8C3.70341 9.12573 4.13635 10.1503 4.84481 10.9164C4.85542 10.9279 4.86692 10.94 4.87914 10.9525C5.12082 11.2 5.52721 11.1408 5.72414 10.8564L7.47106 8.33321C7.60985 8.13275 7.60985 7.86725 7.47106 7.66679L5.7247 5.14444Z" fill="#A0A0B3"/>
<path d="M6.89255 12.1525C7.24587 12.2465 7.61708 12.2966 8 12.2966C9.93766 12.2966 11.5757 11.0139 12.1115 9.25138C12.1199 9.22374 12.1284 9.19267 12.1369 9.1593C12.2255 8.81024 11.9432 8.48591 11.5831 8.48587L8.85328 8.48562C8.66115 8.4856 8.48123 8.57988 8.37189 8.73787L6.59883 11.2998C6.38656 11.6065 6.50795 12.0437 6.86682 12.1454C6.87563 12.1479 6.88421 12.1503 6.89255 12.1525Z" fill="#A0A0B3"/>
<path fill-rule="evenodd" clip-rule="evenodd" d="M7.41463 0.585366C7.41463 0.262077 7.67671 0 8 0C8.32329 0 8.58536 0.262077 8.58536 0.585366V1.07097C8.58536 1.30459 8.73682 1.51124 8.9596 1.58159L9.32934 1.69835C9.55892 1.74654 9.784 1.80696 10.0039 1.87889L10.3782 1.9617C10.6063 2.01216 10.8408 1.90892 10.9576 1.7066L11.2004 1.28606C11.362 1.00608 11.72 0.910152 12 1.0718C12.28 1.23344 12.3759 1.59145 12.2143 1.87142L11.9715 2.29196C11.8546 2.49428 11.8825 2.74898 12.0402 2.9213L12.3108 3.21686C12.4763 3.36606 12.6339 3.52373 12.7831 3.68917L13.0787 3.95976C13.251 4.11751 13.5057 4.14535 13.708 4.02854L14.1286 3.78574C14.4086 3.6241 14.7666 3.72002 14.9282 4C15.0898 4.27998 14.9939 4.63798 14.7139 4.79962L14.2934 5.04242C14.0911 5.15923 13.9878 5.39373 14.0383 5.62183L14.1211 5.99613C14.193 6.21599 14.2535 6.44106 14.3016 6.67063L14.4184 7.0404C14.4888 7.26318 14.6954 7.41463 14.929 7.41463H15.4146C15.7379 7.41463 16 7.67671 16 8C16 8.32329 15.7379 8.58536 15.4146 8.58536H14.929C14.6954 8.58536 14.4888 8.73682 14.4184 8.9596L14.3016 9.32937C14.2535 9.55893 14.193 9.78399 14.1211 10.0038L14.0383 10.3782C13.9878 10.6063 14.0911 10.8408 14.2934 10.9576L14.7139 11.2004C14.9939 11.362 15.0898 11.72 14.9282 12C14.7666 12.28 14.4086 12.3759 14.1286 12.2143L13.708 11.9715C13.5057 11.8546 13.251 11.8825 13.0787 12.0402L12.7831 12.3108C12.6339 12.4763 12.4763 12.634 12.3108 12.7832L12.0402 13.0787C11.8825 13.251 11.8546 13.5057 11.9715 13.708L12.2143 14.1286C12.3759 14.4086 12.28 14.7666 12 14.9282C11.72 15.0898 11.362 14.9939 11.2004 14.7139L10.9576 14.2934C10.8408 14.0911 10.6063 13.9878 10.3782 14.0383L10.0039 14.1211C9.78402 14.193 9.55893 14.2535 9.32935 14.3016L8.9596 14.4184C8.73682 14.4888 8.58536 14.6954 8.58536 14.929V15.4146C8.58536 15.7379 8.32329 16 8 16C7.67671 16 7.41463 15.7379 7.41463 15.4146V14.929C7.41463 14.6954 7.26318 14.4888 7.0404 14.4184L6.67066 14.3016C6.44107 14.2535 6.21598 14.193 5.99611 14.1211L5.62183 14.0383C5.39373 13.9878 5.15923 14.0911 5.04242 14.2934L4.79962 14.7139C4.63798 14.9939 4.27998 15.0898 4 14.9282C3.72002 14.7666 3.6241 14.4086 3.78574 14.1286L4.02854 13.708C4.14535 13.5057 4.11751 13.251 3.95976 13.0787L3.68919 12.7832C3.52373 12.6339 3.36605 12.4763 3.21683 12.3108L2.9213 12.0402C2.74898 11.8825 2.49429 11.8546 2.29196 11.9715L1.87142 12.2143C1.59145 12.3759 1.23344 12.28 1.0718 12C0.910154 11.72 1.00608 11.362 1.28606 11.2004L1.7066 10.9576C1.90892 10.8408 2.01216 10.6063 1.9617 10.3782L1.8789 10.0039C1.80696 9.78402 1.74654 9.55893 1.69835 9.32933L1.58159 8.9596C1.51124 8.73682 1.30459 8.58537 1.07097 8.58537H0.585366C0.262077 8.58537 0 8.32329 0 8C0 7.67671 0.262077 7.41464 0.585366 7.41464H1.07097C1.30459 7.41464 1.51124 7.26318 1.58159 7.0404L1.69835 6.67068C1.74654 6.44109 1.80696 6.21599 1.87889 5.99612L1.9617 5.62183C2.01216 5.39373 1.90892 5.15923 1.7066 5.04242L1.28605 4.79962C1.00608 4.63798 0.910151 4.27998 1.07179 4C1.23344 3.72002 1.59144 3.6241 1.87142 3.78574L2.29196 4.02854C2.49428 4.14535 2.74898 4.11751 2.92129 3.95976L3.21684 3.68918C3.36605 3.52373 3.52373 3.36606 3.68918 3.21685L3.95976 2.9213C4.11751 2.74898 4.14535 2.49428 4.02854 2.29196L3.78574 1.87142C3.62409 1.59144 3.72002 1.23344 4 1.0718C4.27997 0.910152 4.63798 1.00608 4.79962 1.28606L5.04242 1.7066C5.15923 1.90892 5.39373 2.01216 5.62183 1.9617L5.99612 1.87889C6.21599 1.80696 6.44108 1.74654 6.67066 1.69835L7.0404 1.58159C7.26318 1.51124 7.41463 1.30459 7.41463 1.07097V0.585366ZM8 13.2683C10.9096 13.2683 13.2683 10.9096 13.2683 8C13.2683 5.0904 10.9096 2.73171 8 2.73171C5.0904 2.73171 2.73171 5.0904 2.73171 8C2.73171 10.9096 5.0904 13.2683 8 13.2683Z" fill="#A0A0B3"/>
</svg>
