<svg width="24" height="24" viewBox="0 0 24 24" fill="none" xmlns="http://www.w3.org/2000/svg">
<path d="M4 7.15381H20.6159" stroke="#0E0E0E" stroke-width="1.5" stroke-linecap="round" stroke-linejoin="round"/>
<path d="M6.07764 7.15381H18.5396V19.6157C18.5396 19.983 18.3937 20.3352 18.134 20.5948C17.8743 20.8545 17.5221 21.0004 17.1549 21.0004H7.4623C7.09506 21.0004 6.74287 20.8545 6.48319 20.5948C6.22352 20.3352 6.07764 19.983 6.07764 19.6157V7.15381Z" stroke="#0E0E0E" stroke-width="1.5" stroke-linecap="round" stroke-linejoin="round"/>
<path d="M8.84631 7.15398V6.46165C8.84631 5.54356 9.21102 4.66308 9.86021 4.01389C10.5094 3.36471 11.3899 3 12.308 3C13.226 3 14.1065 3.36471 14.7557 4.01389C15.4049 4.66308 15.7696 5.54356 15.7696 6.46165V7.15398" stroke="#0E0E0E" stroke-width="1.5" stroke-linecap="round" stroke-linejoin="round"/>
<path d="M10.2314 9.92322V17.5388" stroke="#0E0E0E" stroke-width="1.5" stroke-linecap="round" stroke-linejoin="round"/>
<path d="M14.3851 9.92322V17.5388" stroke="#0E0E0E" stroke-width="1.5" stroke-linecap="round" stroke-linejoin="round"/>
</svg>
