<svg width="24" height="24" viewBox="0 0 24 24" fill="none" xmlns="http://www.w3.org/2000/svg">
<path d="M4 7.15381H20.6159" stroke="#A0A0B3" stroke-width="1.5" stroke-linecap="round" stroke-linejoin="round"/>
<path d="M6.07764 7.15381H18.5396V19.6157C18.5396 19.983 18.3937 20.3352 18.134 20.5948C17.8743 20.8545 17.5221 21.0004 17.1549 21.0004H7.4623C7.09506 21.0004 6.74287 20.8545 6.48319 20.5948C6.22352 20.3352 6.07764 19.983 6.07764 19.6157V7.15381Z" stroke="#A0A0B3" stroke-width="1.5" stroke-linecap="round" stroke-linejoin="round"/>
<path d="M8.84619 7.15398V6.46165C8.84619 5.54356 9.2109 4.66308 9.86008 4.01389C10.5093 3.36471 11.3898 3 12.3078 3C13.2259 3 14.1064 3.36471 14.7556 4.01389C15.4048 4.66308 15.7695 5.54356 15.7695 6.46165V7.15398" stroke="#A0A0B3" stroke-width="1.5" stroke-linecap="round" stroke-linejoin="round"/>
<path d="M10.2314 9.92334V17.539" stroke="#A0A0B3" stroke-width="1.5" stroke-linecap="round" stroke-linejoin="round"/>
<path d="M14.3853 9.92334V17.539" stroke="#A0A0B3" stroke-width="1.5" stroke-linecap="round" stroke-linejoin="round"/>
</svg>
